<svg width="96" height="22" viewBox="0 0 96 22" fill="none" xmlns="http://www.w3.org/2000/svg">
<path d="M30.1378 18V4.90909H35.3793C36.3423 4.90909 37.1456 5.05185 37.7891 5.33736C38.4325 5.62287 38.9162 6.01918 39.2401 6.52628C39.5639 7.02912 39.7259 7.60866 39.7259 8.26491C39.7259 8.77628 39.6236 9.22585 39.419 9.61364C39.2145 9.99716 38.9332 10.3125 38.5753 10.5597C38.2216 10.8026 37.8168 10.9751 37.3608 11.0774V11.2053C37.8594 11.2266 38.326 11.3672 38.7607 11.6271C39.1996 11.8871 39.5554 12.2514 39.8281 12.7202C40.1009 13.1847 40.2372 13.7386 40.2372 14.3821C40.2372 15.0767 40.0646 15.6967 39.7195 16.2422C39.3786 16.7834 38.8736 17.2116 38.2045 17.527C37.5355 17.8423 36.7109 18 35.7308 18H30.1378ZM32.9055 15.7372H35.1619C35.9332 15.7372 36.4957 15.5902 36.8494 15.2962C37.2031 14.9979 37.38 14.6016 37.38 14.1072C37.38 13.745 37.2926 13.4254 37.1179 13.1484C36.9432 12.8714 36.6939 12.6541 36.37 12.4964C36.0504 12.3388 35.669 12.2599 35.2259 12.2599H32.9055V15.7372ZM32.9055 10.3871H34.9574C35.3366 10.3871 35.6733 10.321 35.9673 10.1889C36.2656 10.0526 36.5 9.8608 36.6705 9.61364C36.8452 9.36648 36.9325 9.07031 36.9325 8.72514C36.9325 8.25213 36.7642 7.87074 36.4276 7.58097C36.0952 7.29119 35.6222 7.14631 35.0085 7.14631H32.9055V10.3871ZM41.987 18V8.18182H44.71V18H41.987ZM43.3549 6.91619C42.9501 6.91619 42.6028 6.78196 42.313 6.51349C42.0275 6.24077 41.8848 5.91477 41.8848 5.53551C41.8848 5.16051 42.0275 4.83878 42.313 4.57031C42.6028 4.29758 42.9501 4.16122 43.3549 4.16122C43.7598 4.16122 44.1049 4.29758 44.3904 4.57031C44.6802 4.83878 44.8251 5.16051 44.8251 5.53551C44.8251 5.91477 44.6802 6.24077 44.3904 6.51349C44.1049 6.78196 43.7598 6.91619 43.3549 6.91619ZM52.1136 8.18182V10.2273H46.201V8.18182H52.1136ZM47.5433 5.82955H50.2663V14.983C50.2663 15.2344 50.3047 15.4304 50.3814 15.571C50.4581 15.7074 50.5646 15.8033 50.701 15.8587C50.8416 15.9141 51.0036 15.9418 51.1868 15.9418C51.3146 15.9418 51.4425 15.9311 51.5703 15.9098C51.6982 15.8842 51.7962 15.8651 51.8643 15.8523L52.2926 17.8786C52.1563 17.9212 51.9645 17.9702 51.7173 18.0256C51.4702 18.0852 51.1697 18.1214 50.8161 18.1342C50.1598 18.1598 49.5845 18.0724 49.0902 17.8722C48.6001 17.6719 48.2188 17.3608 47.946 16.9389C47.6733 16.517 47.5391 15.9844 47.5433 15.3409V5.82955ZM54.1495 18V4.90909H59.3143C60.3072 4.90909 61.1531 5.09872 61.8519 5.47798C62.5508 5.85298 63.0835 6.375 63.4499 7.04403C63.8207 7.70881 64.006 8.47585 64.006 9.34517C64.006 10.2145 63.8185 10.9815 63.4435 11.6463C63.0685 12.3111 62.5252 12.8288 61.8136 13.1996C61.1062 13.5703 60.2496 13.7557 59.244 13.7557H55.9521V11.5376H58.7965C59.3292 11.5376 59.7681 11.446 60.1133 11.2628C60.4627 11.0753 60.7227 10.8175 60.8931 10.4893C61.0678 10.157 61.1552 9.77557 61.1552 9.34517C61.1552 8.91051 61.0678 8.53125 60.8931 8.20739C60.7227 7.87926 60.4627 7.62571 60.1133 7.44673C59.7638 7.26349 59.3207 7.17188 58.7837 7.17188H56.9173V18H54.1495ZM68.2887 18.1854C67.6623 18.1854 67.104 18.0767 66.614 17.8594C66.1239 17.6378 65.7362 17.3118 65.4506 16.8814C65.1694 16.4467 65.0288 15.9055 65.0288 15.2578C65.0288 14.7124 65.1289 14.2543 65.3292 13.8835C65.5295 13.5128 65.8022 13.2145 66.1474 12.9886C66.4925 12.7628 66.8846 12.5923 67.3235 12.4773C67.7667 12.3622 68.2312 12.2812 68.717 12.2344C69.288 12.1747 69.7482 12.1193 70.0977 12.0682C70.4471 12.0128 70.7006 11.9318 70.8583 11.8253C71.016 11.7187 71.0948 11.5611 71.0948 11.3523V11.3139C71.0948 10.9091 70.967 10.5959 70.7113 10.3743C70.4599 10.1527 70.1019 10.0419 69.6374 10.0419C69.1474 10.0419 68.7575 10.1506 68.4677 10.3679C68.1779 10.581 67.9862 10.8494 67.8924 11.1733L65.3739 10.9688C65.5018 10.3722 65.7532 9.85653 66.1282 9.42188C66.5032 8.98295 66.9869 8.64631 67.5792 8.41193C68.1758 8.1733 68.8661 8.05398 69.6502 8.05398C70.1957 8.05398 70.7177 8.1179 71.2163 8.24574C71.7191 8.37358 72.1644 8.57173 72.5522 8.8402C72.9442 9.10866 73.2532 9.45384 73.479 9.87571C73.7049 10.2933 73.8178 10.794 73.8178 11.3778V18H71.2354V16.6385H71.1587C71.0011 16.9453 70.7901 17.2159 70.5259 17.4503C70.2617 17.6804 69.9442 17.8615 69.5735 17.9936C69.2028 18.1214 68.7745 18.1854 68.2887 18.1854ZM69.0685 16.3061C69.4691 16.3061 69.8228 16.2273 70.1296 16.0696C70.4364 15.9077 70.6772 15.6903 70.8519 15.4176C71.0266 15.1449 71.114 14.8359 71.114 14.4908V13.4489C71.0288 13.5043 70.9116 13.5554 70.7624 13.6023C70.6175 13.6449 70.4535 13.6854 70.2702 13.7237C70.087 13.7578 69.9038 13.7898 69.7205 13.8196C69.5373 13.8452 69.3711 13.8686 69.2219 13.8899C68.9023 13.9368 68.6232 14.0114 68.3846 14.1136C68.146 14.2159 67.9606 14.3544 67.8285 14.5291C67.6964 14.6996 67.6303 14.9126 67.6303 15.1683C67.6303 15.5391 67.7646 15.8224 68.033 16.0185C68.3058 16.2102 68.6509 16.3061 69.0685 16.3061ZM84.0994 10.9815L81.6065 11.1349C81.5639 10.9219 81.4723 10.7301 81.3317 10.5597C81.1911 10.3849 81.0057 10.2464 80.7756 10.1442C80.5497 10.0376 80.2791 9.98438 79.9638 9.98438C79.5419 9.98438 79.1861 10.0739 78.8963 10.2528C78.6065 10.4276 78.4616 10.6619 78.4616 10.956C78.4616 11.1903 78.5554 11.3885 78.7429 11.5504C78.9304 11.7124 79.2521 11.8423 79.7081 11.9403L81.4851 12.2983C82.4396 12.4943 83.1513 12.8097 83.62 13.2443C84.0888 13.679 84.3232 14.25 84.3232 14.9574C84.3232 15.6009 84.1335 16.1655 83.7543 16.6513C83.3793 17.1371 82.8636 17.5163 82.2074 17.7891C81.5554 18.0575 80.8033 18.1918 79.951 18.1918C78.6513 18.1918 77.6158 17.9212 76.8445 17.38C76.0774 16.8345 75.6278 16.093 75.4957 15.1555L78.174 15.0149C78.255 15.4112 78.451 15.7138 78.7621 15.9226C79.0732 16.1271 79.4716 16.2294 79.9574 16.2294C80.4347 16.2294 80.8182 16.1378 81.108 15.9545C81.402 15.767 81.5511 15.5263 81.5554 15.2322C81.5511 14.9851 81.4467 14.7827 81.2422 14.625C81.0376 14.4631 80.7223 14.3395 80.2962 14.2543L78.5959 13.9155C77.6371 13.7237 76.9233 13.3913 76.4545 12.9183C75.9901 12.4453 75.7578 11.8423 75.7578 11.1094C75.7578 10.4787 75.9283 9.93537 76.2692 9.4794C76.6143 9.02344 77.098 8.67188 77.7202 8.42472C78.3466 8.17756 79.0795 8.05398 79.919 8.05398C81.1591 8.05398 82.1349 8.31605 82.8466 8.8402C83.5625 9.36435 83.9801 10.0781 84.0994 10.9815ZM94.2069 10.9815L91.714 11.1349C91.6713 10.9219 91.5797 10.7301 91.4391 10.5597C91.2985 10.3849 91.1131 10.2464 90.883 10.1442C90.6571 10.0376 90.3865 9.98438 90.0712 9.98438C89.6493 9.98438 89.2935 10.0739 89.0037 10.2528C88.714 10.4276 88.5691 10.6619 88.5691 10.956C88.5691 11.1903 88.6628 11.3885 88.8503 11.5504C89.0378 11.7124 89.3596 11.8423 89.8155 11.9403L91.5925 12.2983C92.5471 12.4943 93.2587 12.8097 93.7275 13.2443C94.1962 13.679 94.4306 14.25 94.4306 14.9574C94.4306 15.6009 94.2409 16.1655 93.8617 16.6513C93.4867 17.1371 92.9711 17.5163 92.3148 17.7891C91.6628 18.0575 90.9107 18.1918 90.0584 18.1918C88.7587 18.1918 87.7232 17.9212 86.9519 17.38C86.1848 16.8345 85.7353 16.093 85.6032 15.1555L88.2814 15.0149C88.3624 15.4112 88.5584 15.7138 88.8695 15.9226C89.1806 16.1271 89.579 16.2294 90.0648 16.2294C90.5421 16.2294 90.9256 16.1378 91.2154 15.9545C91.5094 15.767 91.6586 15.5263 91.6628 15.2322C91.6586 14.9851 91.5542 14.7827 91.3496 14.625C91.1451 14.4631 90.8297 14.3395 90.4036 14.2543L88.7033 13.9155C87.7445 13.7237 87.0307 13.3913 86.562 12.9183C86.0975 12.4453 85.8652 11.8423 85.8652 11.1094C85.8652 10.4787 86.0357 9.93537 86.3766 9.4794C86.7218 9.02344 87.2054 8.67188 87.8276 8.42472C88.454 8.17756 89.187 8.05398 90.0265 8.05398C91.2665 8.05398 92.2424 8.31605 92.954 8.8402C93.6699 9.36435 94.0875 10.0781 94.2069 10.9815Z" fill="#2C2548"/>
<rect x="18.477" y="1" width="2" height="12.193" transform="rotate(51.0093 18.477 1)" fill="#835AF3"/>
<rect x="11.2262" y="8.21136" width="2.00948" height="4.41504" transform="rotate(141.279 11.2262 8.21136)" fill="#835AF3"/>
<rect x="9.26978" y="11.0408" width="2" height="12.193" transform="rotate(140.705 9.26978 11.0408)" fill="#835AF3"/>
<rect x="6.52576" y="10.657" width="2.00293" height="4.41504" transform="rotate(52.1256 6.52576 10.657)" fill="#835AF3"/>
<rect x="1.23065" y="21.6838" width="2" height="12.193" transform="rotate(-127.975 1.23065 21.6838)" fill="#835AF3"/>
<rect x="12.3269" y="16.0462" width="2.00293" height="4.41504" transform="rotate(141.215 12.3269 16.0462)" fill="#835AF3"/>
<rect x="11" y="11.8548" width="2" height="12.193" transform="rotate(-38.6863 11 11.8548)" fill="#835AF3"/>
<rect x="15.2055" y="8.39429" width="2.00199" height="4.41504" transform="rotate(49.9981 15.2055 8.39429)" fill="#835AF3"/>
</svg>
