<svg width="18" height="18" viewBox="0 0 18 18" fill="none" xmlns="http://www.w3.org/2000/svg">
<path d="M11.43 1.5H8.5095C7.1865 1.5 6.138 1.5 5.31825 1.611C4.47375 1.725 3.7905 1.965 3.252 2.50575C2.71275 3.0465 2.4735 3.73275 2.36025 4.58025C2.25 5.40375 2.25 6.456 2.25 7.78425V12.1627C2.25 13.2937 2.94 14.2627 3.92025 14.6693C3.87 13.9867 3.87 13.0305 3.87 12.234V8.4765C3.87 7.51575 3.87 6.687 3.9585 6.024C4.05375 5.313 4.26825 4.632 4.81875 4.07925C5.36925 3.5265 6.048 3.31125 6.756 3.21525C7.416 3.12675 8.241 3.12675 9.19875 3.12675H11.5013C12.4583 3.12675 13.2817 3.12675 13.9425 3.21525C13.7445 2.71003 13.3989 2.27617 12.9507 1.97022C12.5026 1.66426 11.9726 1.50041 11.43 1.5Z" fill="#2C2548"/>
<path d="M4.94995 8.54775C4.94995 6.50325 4.94995 5.481 5.58295 4.84575C6.2152 4.2105 7.23295 4.2105 9.26995 4.2105H11.43C13.4662 4.2105 14.4847 4.2105 15.1177 4.84575C15.7499 5.481 15.75 6.50325 15.75 8.54775V12.1627C15.75 14.2072 15.7499 15.2295 15.1177 15.8647C14.4847 16.5 13.4662 16.5 11.43 16.5H9.26995C7.2337 16.5 6.2152 16.5 5.58295 15.8647C4.94995 15.2295 4.94995 14.2072 4.94995 12.1627V8.54775Z" fill="#2C2548"/>
</svg>
