<svg width="19" height="19" viewBox="0 0 19 19" fill="none" xmlns="http://www.w3.org/2000/svg">
<g clip-path="url(#clip0_37_82)">
<path fill-rule="evenodd" clip-rule="evenodd" d="M0.358294 1.79686C0.1785 1.60391 0.0806183 1.3487 0.0852709 1.08501C0.0899234 0.821311 0.196747 0.569717 0.383236 0.383228C0.569725 0.196739 0.821319 0.0899151 1.08501 0.0852626C1.34871 0.08061 1.60391 0.178491 1.79687 0.358286L5.36479 3.92486C6.59572 3.24764 7.99765 2.76857 9.50001 2.76857C11.5792 2.76857 13.4629 3.68736 14.9761 4.77714C16.4934 5.86964 17.6944 7.17793 18.4219 8.05736L18.4273 8.06414C18.753 8.46857 18.924 8.98021 18.924 9.5C18.924 10.0198 18.753 10.5314 18.4273 10.9359L18.4219 10.944C17.5159 12.0472 16.4925 13.0483 15.3697 13.9297L18.6417 17.2031C18.8215 17.3961 18.9194 17.6513 18.9147 17.915C18.9101 18.1787 18.8033 18.4303 18.6168 18.6168C18.4303 18.8033 18.1787 18.9101 17.915 18.9147C17.6513 18.9194 17.3961 18.8215 17.2032 18.6417L0.358294 1.79686ZM12.2374 10.7988C12.5058 10.2339 12.5929 9.59978 12.4865 8.98345C12.3802 8.36713 12.0857 7.79884 11.6434 7.35659C11.2012 6.91434 10.6329 6.61983 10.0166 6.51349C9.40023 6.40714 8.7661 6.49417 8.20122 6.76264L12.2374 10.7988ZM0.579508 8.05736C1.01244 7.53214 1.61365 6.85629 2.35058 6.16414L11.9917 15.8053C11.19 16.0824 10.3483 16.2263 9.50001 16.2314C7.42087 16.2314 5.53715 15.314 4.02394 14.2242C2.50665 13.1304 1.30558 11.8221 0.578151 10.944L0.572723 10.9359C0.249021 10.5275 0.0738561 10.0211 0.0760084 9.5C0.0760084 8.98021 0.247008 8.46857 0.572723 8.06414L0.579508 8.05736Z" fill="#835AF3"/>
</g>
<defs>
<clipPath id="clip0_37_82">
<rect width="19" height="19" fill="white"/>
</clipPath>
</defs>
</svg>
