<svg width="19" height="19" viewBox="0 0 19 19" fill="none" xmlns="http://www.w3.org/2000/svg">
<g clip-path="url(#clip0_53_189)">
<path fill-rule="evenodd" clip-rule="evenodd" d="M0.358233 1.79686C0.178439 1.60391 0.0805573 1.3487 0.0852098 1.08501C0.0898624 0.821313 0.196686 0.569719 0.383175 0.38323C0.569664 0.19674 0.821258 0.0899171 1.08495 0.0852645C1.34865 0.0806119 1.60385 0.178493 1.7968 0.358288L5.36473 3.92486C6.59566 3.24764 7.99759 2.76857 9.49995 2.76857C11.5791 2.76857 13.4628 3.68736 14.976 4.77714C16.4933 5.86965 17.6944 7.17793 18.4218 8.05736L18.4272 8.06414C18.7529 8.46857 18.9239 8.98022 18.9239 9.5C18.9239 10.0198 18.7529 10.5314 18.4272 10.9359L18.4218 10.944C17.5159 12.0472 16.4924 13.0483 15.3696 13.9297L18.6417 17.2031C18.8215 17.3961 18.9193 17.6513 18.9147 17.915C18.91 18.1787 18.8032 18.4303 18.6167 18.6168C18.4302 18.8033 18.1786 18.9101 17.9149 18.9147C17.6512 18.9194 17.396 18.8215 17.2031 18.6417L0.358233 1.79686ZM12.2373 10.7988C12.5058 10.2339 12.5928 9.59978 12.4865 8.98346C12.3801 8.36713 12.0856 7.79884 11.6434 7.35659C11.2011 6.91435 10.6328 6.61983 10.0165 6.51349C9.40017 6.40714 8.76604 6.49418 8.20116 6.76264L12.2373 10.7988ZM0.579447 8.05736C1.01238 7.53214 1.61359 6.85629 2.35052 6.16414L11.9917 15.8053C11.1899 16.0824 10.3482 16.2263 9.49995 16.2314C7.4208 16.2314 5.53709 15.314 4.02388 14.2242C2.50659 13.1304 1.30552 11.8221 0.57809 10.944L0.572662 10.9359C0.24896 10.5275 0.0737951 10.0211 0.0759473 9.5C0.0759473 8.98022 0.246947 8.46857 0.572662 8.06414L0.579447 8.05736Z" fill="#2C2548"/>
</g>
<defs>
<clipPath id="clip0_53_189">
<rect width="19" height="19" fill="white"/>
</clipPath>
</defs>
</svg>
