<svg width="24" height="24" viewBox="0 0 24 24" fill="none" xmlns="http://www.w3.org/2000/svg">
<path d="M3 4.5H21C21.3978 4.5 21.7794 4.65804 22.0607 4.93934C22.342 5.22064 22.5 5.60218 22.5 6V18C22.5 18.3978 22.342 18.7794 22.0607 19.0607C21.7794 19.342 21.3978 19.5 21 19.5H3C2.60218 19.5 2.22064 19.342 1.93934 19.0607C1.65804 18.7794 1.5 18.3978 1.5 18V6C1.5 5.60218 1.65804 5.22064 1.93934 4.93934C2.22064 4.65804 2.60218 4.5 3 4.5ZM4.82062 13.3791C4.7627 13.4591 4.7211 13.5497 4.69821 13.6458C4.67532 13.7419 4.67158 13.8416 4.68721 13.9391C4.70283 14.0367 4.73752 14.1302 4.78929 14.2143C4.84105 14.2985 4.90888 14.3716 4.98891 14.4295C5.06893 14.4875 5.15958 14.5291 5.25568 14.5519C5.35178 14.5748 5.45145 14.5786 5.54899 14.563C5.64654 14.5473 5.74005 14.5126 5.82419 14.4609C5.90833 14.4091 5.98145 14.3413 6.03937 14.2612L6.75 13.2759L7.46531 14.2612C7.5823 14.4229 7.75869 14.5314 7.9557 14.563C8.1527 14.5945 8.35417 14.5465 8.51578 14.4295C8.6774 14.3125 8.78592 14.1361 8.81748 13.9391C8.84904 13.7421 8.80105 13.5407 8.68406 13.3791L7.96781 12.3947L9.12656 12.0197C9.22019 11.9889 9.30684 11.94 9.38156 11.8757C9.45629 11.8115 9.51762 11.7331 9.56206 11.6451C9.65181 11.4675 9.66732 11.2614 9.60516 11.0723C9.57438 10.9787 9.52546 10.8921 9.46119 10.8173C9.39693 10.7426 9.31857 10.6813 9.2306 10.6368C9.05294 10.5471 8.8469 10.5316 8.65781 10.5938L7.5 10.9688V9.75C7.5 9.55109 7.42098 9.36032 7.28033 9.21967C7.13968 9.07902 6.94891 9 6.75 9C6.55109 9 6.36032 9.07902 6.21967 9.21967C6.07902 9.36032 6 9.55109 6 9.75V10.9688L4.84219 10.5938C4.74856 10.563 4.64979 10.5509 4.55151 10.5583C4.45323 10.5657 4.35736 10.5924 4.2694 10.6368C4.18143 10.6813 4.10307 10.7426 4.03881 10.8173C3.97454 10.8921 3.92562 10.9787 3.89484 11.0723C3.86407 11.166 3.85203 11.2647 3.85942 11.363C3.86682 11.4613 3.8935 11.5572 3.93794 11.6451C3.98238 11.7331 4.04371 11.8115 4.11844 11.8757C4.19316 11.94 4.27981 11.9889 4.37344 12.0197L5.53219 12.3947L4.82062 13.3791ZM11.5706 13.3791C11.5127 13.4591 11.4711 13.5497 11.4482 13.6458C11.4253 13.7419 11.4216 13.8416 11.4372 13.9391C11.4528 14.0367 11.4875 14.1302 11.5393 14.2143C11.5911 14.2985 11.6589 14.3716 11.7389 14.4295C11.8189 14.4875 11.9096 14.5291 12.0057 14.5519C12.1018 14.5748 12.2014 14.5786 12.299 14.563C12.3965 14.5473 12.4901 14.5126 12.5742 14.4609C12.6583 14.4091 12.7314 14.3413 12.7894 14.2612L13.5 13.2759L14.2153 14.2612C14.3323 14.4229 14.5087 14.5314 14.7057 14.563C14.9027 14.5945 15.1042 14.5465 15.2658 14.4295C15.4274 14.3125 15.5359 14.1361 15.5675 13.9391C15.599 13.7421 15.551 13.5407 15.4341 13.3791L14.7178 12.3947L15.8766 12.0197C15.9702 11.9889 16.0568 11.94 16.1316 11.8757C16.2063 11.8115 16.2676 11.7331 16.3121 11.6451C16.4018 11.4675 16.4173 11.2614 16.3552 11.0723C16.3244 10.9787 16.2755 10.8921 16.2112 10.8173C16.1469 10.7426 16.0686 10.6813 15.9806 10.6368C15.8029 10.5471 15.5969 10.5316 15.4078 10.5938L14.25 10.9688V9.75C14.25 9.55109 14.171 9.36032 14.0303 9.21967C13.8897 9.07902 13.6989 9 13.5 9C13.3011 9 13.1103 9.07902 12.9697 9.21967C12.829 9.36032 12.75 9.55109 12.75 9.75V10.9688L11.5922 10.5938C11.4986 10.563 11.3998 10.5509 11.3015 10.5583C11.2032 10.5657 11.1074 10.5924 11.0194 10.6368C10.9314 10.6813 10.8531 10.7426 10.7888 10.8173C10.7245 10.8921 10.6756 10.9787 10.6448 11.0723C10.6141 11.166 10.602 11.2647 10.6094 11.363C10.6168 11.4613 10.6435 11.5572 10.6879 11.6451C10.7324 11.7331 10.7937 11.8115 10.8684 11.8757C10.9432 11.94 11.0298 11.9889 11.1234 12.0197L12.2822 12.3947L11.5706 13.3791ZM18 8.25V15.75C18 15.9489 18.079 16.1397 18.2197 16.2803C18.3603 16.421 18.5511 16.5 18.75 16.5C18.9489 16.5 19.1397 16.421 19.2803 16.2803C19.421 16.1397 19.5 15.9489 19.5 15.75V8.25C19.5 8.05109 19.421 7.86032 19.2803 7.71967C19.1397 7.57902 18.9489 7.5 18.75 7.5C18.5511 7.5 18.3603 7.57902 18.2197 7.71967C18.079 7.86032 18 8.05109 18 8.25Z" fill="#835AF3"/>
</svg>
