<svg width="31" height="31" viewBox="0 0 31 31" fill="none" xmlns="http://www.w3.org/2000/svg">
<path d="M23.2499 16.7891H16.7916V23.2474C16.7916 23.59 16.6555 23.9185 16.4133 24.1608C16.171 24.403 15.8425 24.5391 15.4999 24.5391C15.1573 24.5391 14.8288 24.403 14.5866 24.1608C14.3443 23.9185 14.2083 23.59 14.2083 23.2474V16.7891H7.74992C7.40735 16.7891 7.07881 16.653 6.83657 16.4108C6.59434 16.1685 6.45825 15.84 6.45825 15.4974C6.45825 15.1548 6.59434 14.8263 6.83657 14.5841C7.07881 14.3418 7.40735 14.2057 7.74992 14.2057H14.2083V7.74742C14.2083 7.40484 14.3443 7.0763 14.5866 6.83407C14.8288 6.59184 15.1573 6.45575 15.4999 6.45575C15.8425 6.45575 16.171 6.59184 16.4133 6.83407C16.6555 7.0763 16.7916 7.40484 16.7916 7.74742V14.2057H23.2499C23.5925 14.2057 23.921 14.3418 24.1633 14.5841C24.4055 14.8263 24.5416 15.1548 24.5416 15.4974C24.5416 15.84 24.4055 16.1685 24.1633 16.4108C23.921 16.653 23.5925 16.7891 23.2499 16.7891Z" fill="#F5F5F5"/>
</svg>
