<svg width="20" height="20" viewBox="0 0 20 20" fill="none" xmlns="http://www.w3.org/2000/svg">
<g clip-path="url(#clip0_81_2)">
<path fill-rule="evenodd" clip-rule="evenodd" d="M4.19004 4.98714C5.79433 3.83 7.79433 2.85714 10 2.85714C12.2058 2.85714 14.2058 3.83143 15.81 4.98714C17.4215 6.14714 18.6958 7.53571 19.4672 8.46857L19.4743 8.47571C19.8186 8.90428 20 9.44857 20 10C20 10.5514 19.8186 11.0943 19.4743 11.5243L19.4672 11.5314C18.6958 12.4643 17.4215 13.8529 15.81 15.0129C14.2058 16.1714 12.2058 17.1429 10 17.1429C7.79433 17.1429 5.79433 16.1686 4.19004 15.0143C2.57861 13.8514 1.30433 12.4629 0.532896 11.53L0.525754 11.5229C0.182345 11.0898 -0.00310192 10.5526 3.92579e-05 10C3.92579e-05 9.44857 0.181468 8.90571 0.525754 8.47571L0.532896 8.46857C1.30433 7.53571 2.57861 6.14714 4.19004 4.98714ZM10 13.2143C10.4221 13.2143 10.8401 13.1311 11.2301 12.9696C11.6201 12.8081 11.9744 12.5713 12.2729 12.2728C12.5714 11.9744 12.8081 11.62 12.9697 11.2301C13.1312 10.8401 13.2143 10.4221 13.2143 10C13.2143 9.57789 13.1312 9.15992 12.9697 8.76994C12.8081 8.37997 12.5714 8.02563 12.2729 7.72715C11.9744 7.42868 11.6201 7.19192 11.2301 7.03038C10.8401 6.86885 10.4221 6.78571 10 6.78571C9.14756 6.78571 8.32999 7.12436 7.7272 7.72715C7.1244 8.32995 6.78575 9.14752 6.78575 10C6.78575 10.8525 7.1244 11.67 7.7272 12.2728C8.32999 12.8756 9.14756 13.2143 10 13.2143Z" fill="#2C2548"/>
</g>
<defs>
<clipPath id="clip0_81_2">
<rect width="20" height="20" fill="white"/>
</clipPath>
</defs>
</svg>
